<svg viewBox="0 0 512 512" xmlns="http://www.w3.org/2000/svg" xmlns:xlink="http://www.w3.org/1999/xlink"><linearGradient id="a" gradientTransform="matrix(1 0 0 -1 0 -18530)" gradientUnits="userSpaceOnUse" x1="0" x2="512" y1="-18786" y2="-18786"><stop offset="0" stop-color="#31d8ff"/><stop offset="1" stop-color="#ff80ff"/></linearGradient><path d="m512 256c0 141.386719-114.613281 256-256 256s-256-114.613281-256-256 114.613281-256 256-256 256 114.613281 256 256zm0 0" fill="url(#a)"/><path d="m456 256c0-94.972656-66.546875-174.691406-155.457031-194.992188-.28125-.070312-.5625-.132812-.847657-.1875-14.070312-3.148437-28.691406-4.820312-43.695312-4.820312s-29.625 1.671875-43.691406 4.820312c-.289063.054688-.574219.117188-.855469.1875-88.910156 20.300782-155.453125 100.019532-155.453125 194.992188 0 94.910156 66.453125 174.585938 155.273438 194.953125.457031.121094.917968.226563 1.386718.304687 13.960938 3.09375 28.460938 4.742188 43.339844 4.742188s29.378906-1.648438 43.339844-4.742188c.46875-.078124.929687-.183593 1.386718-.304687 88.820313-20.367187 155.273438-100.042969 155.273438-194.953125zm-138.144531 158.347656c8.675781-40.449218 13.855469-90.699218 14.6875-143.347656h92.785156c-5.742187 65.402344-48.675781 120.300781-107.472656 143.347656zm107.476562-173.347656h-92.789062c-.828125-52.648438-6.011719-102.898438-14.6875-143.347656 58.796875 23.046875 101.730469 77.945312 107.476562 143.347656zm-140.4375-152.53125c10.433594 40.460938 16.714844 94.820312 17.644531 152.53125h-93.078124c.933593-57.710938 7.214843-112.070312 17.644531-152.53125 9.394531-1.617188 19.046875-2.46875 28.894531-2.46875s19.5.851562 28.894531 2.46875zm-90.75 9.183594c-8.675781 40.449218-13.855469 90.699218-14.6875 143.347656h-92.789062c5.746093-65.402344 48.679687-120.300781 107.476562-143.347656zm-107.476562 173.347656h92.789062c.828125 52.648438 6.011719 102.898438 14.6875 143.347656-58.796875-23.046875-101.730469-77.945312-107.476562-143.347656zm140.4375 152.53125c-10.433594-40.460938-16.714844-94.820312-17.644531-152.53125h93.078124c-.929687 57.710938-7.210937 112.070312-17.644531 152.53125-9.394531 1.617188-19.046875 2.46875-28.894531 2.46875s-19.5-.851562-28.894531-2.46875zm0 0" fill="#fff"/></svg>